<?xml version="1.0" encoding="UTF-8"?><svg id="Layer_2" xmlns="http://www.w3.org/2000/svg" viewBox="0 0 178.2576 202.9198"><g id="Components"><g id="_17a8afee-41be-4e9c-9c32-a4b53c890632_1"><path d="M87.8795,30.1916c-4.9652,0-8.9904,4.0252-8.9904,8.9901s4.0252,8.9901,8.9904,8.9901,8.9901-4.0248,8.9901-8.9901-4.0252-8.9901-8.9901-8.9901" style="fill:#ffead6; stroke-width:0px;"/><path d="M87.8796,49.6288c-5.7607,0-10.4474-4.6865-10.4474-10.4471s4.6867-10.4471,10.4474-10.4471,10.4471,4.6865,10.4471,10.4471-4.6865,10.4471-10.4471,10.4471ZM87.8796,30.1916c-4.9574,0-8.9905,4.0329-8.9905,8.9901s4.0331,8.9901,8.9905,8.9901,8.9901-4.0329,8.9901-8.9901-4.0329-8.9901-8.9901-8.9901Z" style="fill:#ffb456; stroke-width:0px;"/><path d="M88.6079,26.342v-10.2153h-1.4569v10.2153c.2412-.0135.484-.021.7286-.021s.4872.0075.7283.0209Z" style="fill:#ffb456; stroke-width:0px;"/><path d="M55.473,93.0984l1.2574.7359,25.2842-43.2042c-.4337-.2226-.8527-.4696-1.256-.7383l-25.2856,43.2065Z" style="fill:#ffb456; stroke-width:0px;"/><path d="M86.933,52.0075l.4065,27.2673,1.4569-.023-.4058-27.2205c-.1696.0066-.3398.011-.511.011-.3184,0-.634-.012-.9466-.0348Z" style="fill:#ffb456; stroke-width:0px;"/><path d="M101.6153,64.4643l1.2535-.7427-8.1025-13.6774c-.4091.2599-.8338.4974-1.2725.7106l8.1215,13.7095Z" style="fill:#ffb456; stroke-width:0px;"/><path d="M112.6548,54.249l.7395-1.2553-13.9356-8.2097c-.2128.4389-.45.8637-.7094,1.273l13.9055,8.1919Z" style="fill:#ffb456; stroke-width:0px;"/><path d="M100.719,39.9139l24.8452.3351.0196-1.4569-24.8643-.3354c.0134.24.0207.4816.0207.725,0,.2458-.0076.4898-.0212.7323Z" style="fill:#ffb456; stroke-width:0px;"/><path d="M113.4131,25.954l-.3497-.6391-.5366-.5366-13.7402,7.588c.2571.4106.4921.8364.7024,1.2764l13.9241-7.6887Z" style="fill:#ffb456; stroke-width:0px;"/><path d="M101.9276,17.1941l-1.2368-.7701-7.0184,11.2733c.4353.22.8562.4643,1.2614.7306l6.9938-11.2337Z" style="fill:#ffb456; stroke-width:0px;"/><path d="M75.3077,16.1267h-.8406l-.6313.3633,6.902,11.9952c.4028-.2695.8216-.517,1.2549-.7404l-6.685-11.6181Z" style="fill:#ffb456; stroke-width:0px;"/><path d="M63.8262,24.6449l-.5316.5316-.3712.6268,13.3223,7.8908c.2085-.4412.4414-.8685.6968-1.2804l-13.1163-7.7688Z" style="fill:#ffb456; stroke-width:0px;"/><path d="M75.0541,38.2206h-24.8037l-.0288.0288v1.4282h24.8072c-.0063-.1646-.0104-.3298-.0104-.4959,0-.3233.0123-.6437.0357-.961Z" style="fill:#ffb456; stroke-width:0px;"/><path d="M52.5947,58.0731l.7107,1.272,23.7256-13.2535c-.2607-.4084-.4986-.8327-.7128-1.2708l-23.7236,13.2523Z" style="fill:#ffb456; stroke-width:0px;"/><polygon points="63.6657 24.5498 63.2945 25.1765 63.8262 24.6449 63.6657 24.5498" style="fill:#fff; stroke-width:0px;"/><polygon points="50.2216 38.2206 50.2216 38.2494 50.2504 38.2206 50.2216 38.2206" style="fill:#fff; stroke-width:0px;"/><path d="M126.1941,39.1915v54.1854h-54.1853c18.0617-18.0618,36.1236-36.1236,54.1853-54.1854Z" style="fill:#b3dbe2; stroke-width:0px;"/><path d="M88.0445,0l-55.2276,55.2273,55.2276,55.2273,55.2275-55.2273L88.0445,0ZM88.0445,1.7594l37.5498,37.5499c-17.8866,17.8834-35.7732,35.7668-53.6598,53.6503-12.4527-12.5774-24.9054-25.1548-37.3581-37.7322L88.0445,1.7594ZM73.0061,93.6569l53.4679-53.4679,15.0383,15.0384-53.4678,53.468-15.0384-15.0384Z" style="fill:#619eab; stroke-width:0px;"/><path d="M50.1848,72.4264v20.3304s20.3303,0,20.3303,0c-6.7767-6.7768-13.5536-13.5536-20.3303-20.3304Z" style="fill:#b9b765; stroke-width:0px;"/><path d="M50.1848,54.1176v16.2841s16.284,0,16.284,0c-5.428-5.428-10.8561-10.8561-16.284-16.2841Z" style="fill:#b9b765; stroke-width:0px;"/><path d="M50.1848,40.1041v11.8855s11.8854,0,11.8854,0c-3.9618-3.9618-7.9236-7.9236-11.8854-11.8855Z" style="fill:#b9b765; stroke-width:0px;"/><path d="M126.8145,16.1268H48.9443l-.0104,77.5088c8.1576-.0297,16.3152.3915,24.4728.3618h53.4077V16.1268ZM50.1848,92.7568v-20.2272l20.227,20.2272h-20.227ZM50.1848,54.1176l16.2842,16.2841h-16.2842v-16.2841ZM50.1848,40.1035l11.8854,11.8861h-11.8854v-11.8861ZM125.574,92.7568h-53.4077l-21.1148-21.1147h18.4123l-18.4123-18.4121h14.0136l-14.8802-14.8806v-20.9822h75.3892v75.3896Z" style="fill:#666638; stroke-width:0px;"/><path d="M105.5687,92.7786h20.0265v-20.0264l-20.0265,20.0264Z" style="fill:#90adb3; stroke-width:0px;"/><path d="M126.8145,93.9979h-24.1894l24.1894-24.1894v24.1894ZM105.5687,92.7786h20.0265v-20.0264l-20.0265,20.0264Z" style="fill:#496a6e; stroke-width:0px;"/><polygon points="102.253 93.9979 48.9339 93.9979 48.9339 92.7599 103.4901 92.7599 102.253 93.9979" style="fill:#666638; stroke-width:0px;"/><path d="M8.1457,127.7393c4.2408-.0121,7.1623,2.7921,8.0324,6.5088l.0526.2853-2.9418.0081-.0526-.1821c-.6313-2.262-2.5615-3.998-5.0865-3.9899-3.4072.0081-5.2686,3.0571-5.2605,6.0759.0081,2.9924,1.8614,6.0313,5.2969,6.0212,2.4967-.0061,4.4431-1.7036,5.0622-3.9959l.0526-.1821,2.9418-.0081-.0526.2873c-.8498,3.7228-3.7309,6.5675-7.9959,6.5796C2.9904,145.1596.0122,140.9553,0,136.4798c-.0121-4.4997,2.9418-8.7243,8.1457-8.7405Z" style="fill:#454545; stroke-width:0px;"/><path d="M31.3323,127.6746c5.2281-.0162,8.2347,4.1639,8.2468,8.6919.0121,4.5018-2.9701,8.7-8.1983,8.7142-5.2038.0142-8.1821-4.1902-8.1942-8.6656-.0121-4.5038,2.9418-8.7263,8.1457-8.7405ZM31.3363,130.3028c-3.4072.0101-5.2686,3.0329-5.2605,6.0759.0081,3.0187,1.8897,6.0313,5.2969,6.0212,3.4355-.0081,5.3495-2.9803,5.3414-6.0253-.0081-3.0693-1.9181-6.0819-5.3778-6.0718Z" style="fill:#454545; stroke-width:0px;"/><path d="M47.312,127.968l2.7071-.0081.0405,14.2579,9.7805-.0283.0081,2.4724-12.4876.0364-.0486-16.7304Z" style="fill:#454545; stroke-width:0px;"/><path d="M73.8289,127.5532c5.2281-.0142,8.2347,4.1659,8.2468,8.6919.0121,4.5038-2.9701,8.7-8.1983,8.7142-5.2038.0142-8.1821-4.1902-8.1942-8.6656-.0121-4.5018,2.9418-8.7243,8.1457-8.7405ZM73.8329,130.1814c-3.4072.0101-5.2686,3.0329-5.2605,6.0779.0081,3.0167,1.8897,6.0313,5.2969,6.0192,3.4355-.0081,5.3495-2.9803,5.3414-6.0253-.0081-3.0693-1.9181-6.0819-5.3778-6.0718Z" style="fill:#454545; stroke-width:0px;"/><path d="M89.8572,144.5769l-.0486-16.7304,11.4759-.0324c3.0187-.0081,4.5847,2.2236,4.5928,4.8012.004,2.3672-1.2099,4.5301-4.0182,4.7709l-.3399.002,4.1558,7.1441-3.0147.0081-4.1315-7.1178-5.9848.0162.0202,7.13-2.7071.0081ZM92.536,134.9421l8.7688-.0243c1.3515-.004,1.8695-.9954,1.8654-2.2701-.004-1.2221-.5787-2.3652-1.8776-2.3632l-8.7688.0263.0121,4.6312Z" style="fill:#454545; stroke-width:0px;"/><path d="M112.3437,144.5122l7.2352-16.8801,2.6545-.0081,7.5913,16.8396-2.9135.0081-1.9383-4.3399-7.9069.0223-1.8614,4.35-2.8609.0081ZM117.9927,137.7059l6.09-.0182-3.1441-6.962-2.9459,6.9803Z" style="fill:#454545; stroke-width:0px;"/><path d="M136.8859,127.713l7.8826-.0223c5.0501-.0142,8.1821,3.828,8.1942,8.3277.0121,4.4492-3.0956,8.3884-8.1457,8.4006l-7.8826.0243-.0486-16.7304ZM144.809,141.9487c3.3829-.0101,5.3009-2.8771,5.2929-5.8958-.0081-3.045-1.9423-5.8998-5.3252-5.8897l-5.1755.0142.0324,11.7855,5.1755-.0142Z" style="fill:#454545; stroke-width:0px;"/><path d="M168.0603,127.2861c5.2322-.0162,8.2347,4.1659,8.2468,8.6919.0121,4.5038-2.9661,8.7-8.1983,8.7142-5.2038.0142-8.1821-4.1902-8.1942-8.6656-.0121-4.5018,2.9418-8.7263,8.1457-8.7405ZM168.0684,129.9143c-3.4072.0101-5.2726,3.0329-5.2645,6.0779.0081,3.0167,1.8897,6.0293,5.2969,6.0192,3.4355-.0081,5.3536-2.9803,5.3455-6.0253-.0081-3.0693-1.9181-6.0819-5.3778-6.0718Z" style="fill:#454545; stroke-width:0px;"/><path d="M.1295,173.8576l7.2392-16.8801,2.6545-.0061,7.5913,16.8376-2.9135.0081-1.9383-4.3399-7.911.0223-1.8614,4.35-2.8609.0081ZM5.7825,167.0513l6.09-.0162-3.1441-6.9641-2.9459,6.9803Z" style="fill:#447e8a; stroke-width:0px;"/><path d="M24.1821,157.0604l7.8826-.0223c5.046-.0142,8.178,3.826,8.1942,8.3298.0121,4.4471-3.0996,8.3844-8.1497,8.4006l-7.8826.0202-.0445-16.7283ZM32.1052,171.2961c3.3829-.0101,5.3009-2.8771,5.2929-5.8958-.0121-3.043-1.9464-5.8998-5.3293-5.8917l-5.1755.0162.0324,11.7855,5.1796-.0142Z" style="fill:#447e8a; stroke-width:0px;"/><path d="M45.0014,156.8703l2.8609-.0081,5.8108,13.2807,5.8958-13.3131,2.9135-.0081-7.4982,16.8821-2.6545.0061-7.3283-16.8396Z" style="fill:#447e8a; stroke-width:0px;"/><path d="M66.1283,173.6714l7.2352-16.8821,2.6545-.0081,7.5913,16.8396-2.9135.0081-1.9383-4.3399-7.9069.0243-1.8614,4.35-2.8609.0081ZM71.7813,166.8632l6.086-.0182-3.1401-6.962-2.9459,6.9803Z" style="fill:#447e8a; stroke-width:0px;"/><path d="M90.1768,156.8743l2.5493-.0081,10.521,12.4066-.0364-12.437,2.7071-.0081.0486,16.7304-2.5493.0081-10.521-12.435.0324,12.4633-2.7031.0081-.0486-16.7283Z" style="fill:#447e8a; stroke-width:0px;"/><path d="M121.323,156.4454c4.2408-.0121,7.1623,2.7901,8.0364,6.5088l.0526.2853-2.9418.0081-.0526-.1821c-.6313-2.262-2.5615-3.998-5.0865-3.9919-3.4072.0101-5.2726,3.0592-5.2605,6.0779.0081,2.9924,1.8614,6.0313,5.2969,6.0192,2.4967-.0061,4.4431-1.7016,5.0622-3.9939l.0486-.1821,2.9418-.0081-.0486.2873c-.8498,3.7228-3.7309,6.5655-7.9959,6.5776-5.2038.0142-8.1821-4.1902-8.1942-8.6656-.0162-4.5018,2.9378-8.7243,8.1416-8.7405Z" style="fill:#447e8a; stroke-width:0px;"/><path d="M136.6552,156.7408l15.4051-.0445.004,2.4724-12.698.0364.0162,4.6312,9.4446-.0263.004,2.4967-9.4446.0283.0162,4.6576,12.698-.0364.004,2.4704-15.4011.0425-.0486-16.7283Z" style="fill:#447e8a; stroke-width:0px;"/><path d="M159.6354,156.676l7.8826-.0243c5.046-.0121,8.178,3.828,8.1942,8.3318.0121,4.4471-3.0996,8.3844-8.1497,8.3986l-7.8826.0223-.0445-16.7283ZM167.5585,170.9117c3.3829-.0101,5.3009-2.8771,5.2929-5.8958-.0121-3.043-1.9464-5.8998-5.3293-5.8917l-5.1755.0162.0324,11.7855,5.1796-.0142Z" style="fill:#447e8a; stroke-width:0px;"/><path d="M.1012,186.155l7.8826-.0202c5.0501-.0162,8.1821,3.826,8.1942,8.3277.0121,4.4471-3.0996,8.3844-8.1457,8.4006l-7.8826.0223-.0486-16.7304ZM8.0243,200.3906c3.3829-.0081,5.3009-2.8771,5.2929-5.8958-.0081-3.043-1.9423-5.8998-5.3252-5.8897l-5.1796.0142.0364,11.7875,5.1755-.0162Z" style="fill:#454545; stroke-width:0px;"/><path d="M22.9519,186.0902l15.4011-.0445.0081,2.4724-12.698.0364.0121,4.6312,9.4446-.0263.0081,2.4967-9.4446.0283.0121,4.6576,12.698-.0364.0081,2.4704-15.4051.0445-.0445-16.7304Z" style="fill:#454545; stroke-width:0px;"/><path d="M45.4627,186.0255l2.5493-.0061,10.5169,12.4066-.0324-12.437,2.7071-.0081.0445,16.7304-2.5493.0061-10.521-12.4309.0364,12.4633-2.7071.0061-.0445-16.7304Z" style="fill:#454545; stroke-width:0px;"/><path d="M74.1688,188.417l-6.5311.0182-.004-2.4704,15.741-.0445.004,2.4704-6.5028.0182.0405,14.2579-2.7071.0081-.0405-14.2579Z" style="fill:#454545; stroke-width:0px;"/><path d="M89.8329,185.9l2.7031-.0081.0486,16.7304-2.7071.0081-.0445-16.7304Z" style="fill:#454545; stroke-width:0px;"/><path d="M102.0453,198.0173l.0486.1801c.4208,1.7441,3.132,2.2559,4.9246,2.2499,2.0314-.004,4.7061-.6373,4.7021-2.7435-.004-1.042-.6798-1.6388-1.6712-1.999-.9874-.3622-2.2134-.437-3.1482-.433-3.2534.0081-7.2352-.4229-7.2473-4.613-.0121-3.7977,3.395-5.135,6.8022-5.1431,3.0956-.0101,7.1057,1.0197,7.5872,4.5847l.0486.2853-2.7031.0061-.0526-.1821c-.3723-1.7157-2.9216-2.2276-4.6656-2.2215-1.8978.004-4.3176.609-4.3095,2.5615.004.9347.6272,1.5053,1.5134,1.8412s2.003.4127,2.8892.4087c3.3546-.0081,7.652.4208,7.6641,4.7668.0121,3.9798-3.6297,5.3414-7.1421,5.3536-3.1199.0081-7.3647-.9954-7.8948-4.609l-.0526-.2873,2.7071-.0061Z" style="fill:#454545; stroke-width:0px;"/><path d="M126.0372,188.2693l-6.5311.0182-.0081-2.4704,15.741-.0465.0081,2.4724-6.5068.0202.0405,14.2559-2.7031.0081-.0405-14.2579Z" style="fill:#454545; stroke-width:0px;"/><path d="M141.7417,202.4827l-.0445-16.7283,11.4719-.0324c3.0187-.0081,4.5847,2.2236,4.5928,4.7992.0081,2.3672-1.2099,4.5321-4.0182,4.7709l-.3399.002,4.1558,7.1441-3.0147.0081-4.1315-7.1178-5.9848.0182.0202,7.128-2.7071.0081ZM144.4205,192.8479l8.7688-.0243c1.3556-.004,1.8695-.9934,1.8654-2.2681,0-1.2241-.5787-2.3672-1.8776-2.3632l-8.7688.0263.0121,4.6292Z" style="fill:#454545; stroke-width:0px;"/><path d="M169.0032,197.0725c-.004-.1295-.004-.2873-.004-.3905v-.1315c-.1052-.4674-.4451-1.0379-.8619-1.6348-.4168-.6232-.8619-1.1957-1.1492-1.6894l-4.6009-7.5326,3.0713-.0081,4.9125,7.9737,4.7668-8.002,3.1199-.0081-4.5604,7.5589c-.2549.4411-.7243,1.0683-1.1371,1.6955-.4127.6515-.7769,1.2241-.8821,1.6388,0,.0526.0283.0789.0283.0789l.0162,5.7764-2.7071.0081-.0121-4.6576v-.6758Z" style="fill:#454545; stroke-width:0px;"/></g></g></svg>