<?xml version="1.0" encoding="UTF-8"?><svg id="Layer_2" xmlns="http://www.w3.org/2000/svg" viewBox="0 0 311.1407 114.0593"><g id="Components"><g id="_9c6284ea-cfb8-4e3c-a6dd-acf514ba145e_1"><path d="M56.8596,31.1769c-5.1272,0-9.2838,4.1565-9.2838,9.2834s4.1566,9.2835,9.2838,9.2835,9.2835-4.1562,9.2835-9.2835-4.1566-9.2834-9.2835-9.2834" style="fill:#ffead6; stroke-width:0px;"/><path d="M56.8597,51.2484c-5.9487,0-10.7884-4.8395-10.7884-10.788s4.8396-10.788,10.7884-10.788,10.788,4.8395,10.788,10.788-4.8395,10.788-10.788,10.788ZM56.8597,31.1769c-5.1192,0-9.2839,4.1645-9.2839,9.2835s4.1647,9.2835,9.2839,9.2835,9.2835-4.1645,9.2835-9.2835-4.1645-9.2835-9.2835-9.2835Z" style="fill:#ffb456; stroke-width:0px;"/><path d="M57.6117,27.2017v-10.5486h-1.5045v10.5486c.2491-.0139.4998-.0216.7524-.0216s.5031.0077.7521.0216Z" style="fill:#ffb456; stroke-width:0px;"/><path d="M23.3956,96.1366l1.2984.76,26.1094-44.6141c-.4478-.2298-.8805-.4849-1.297-.7624l-26.1108,44.6165Z" style="fill:#ffb456; stroke-width:0px;"/><path d="M55.8822,53.7047l.4198,28.1571,1.5045-.0238-.4191-28.1088c-.1751.0068-.3509.0114-.5277.0114-.3288,0-.6547-.0124-.9775-.0359Z" style="fill:#ffb456; stroke-width:0px;"/><path d="M71.0436,66.5681l1.2944-.7669-8.3669-14.1237c-.4224.2684-.861.5136-1.314.7338l8.3865,14.1569Z" style="fill:#ffb456; stroke-width:0px;"/><path d="M82.4434,56.0194l.7636-1.2962-14.3903-8.4776c-.2197.4532-.4646.8919-.7326,1.3145l14.3593,8.4593Z" style="fill:#ffb456; stroke-width:0px;"/><path d="M70.1181,41.2165l25.656.346.0202-1.5045-25.6757-.3463c.0138.2478.0214.4973.0214.7486,0,.2538-.0078.5058-.0219.7562Z" style="fill:#ffb456; stroke-width:0px;"/><path d="M83.2265,26.801l-.3611-.6599-.5541-.5541-14.1886,7.8357c.2655.424.5081.8637.7253,1.318l14.3785-7.9396Z" style="fill:#ffb456; stroke-width:0px;"/><path d="M71.3661,17.7553l-1.2771-.7952-7.2474,11.6412c.4495.2272.8841.4794,1.3025.7544l7.222-11.6004Z" style="fill:#ffb456; stroke-width:0px;"/><path d="M43.8775,16.653h-.868l-.6519.3751,7.1273,12.3867c.416-.2783.8484-.5338,1.2958-.7646l-6.9032-11.9973Z" style="fill:#ffb456; stroke-width:0px;"/><path d="M32.0213,25.4492l-.549.549-.3833.6473,13.7571,8.1483c.2153-.4556.4558-.8969.7196-1.3222l-13.5444-8.0223Z" style="fill:#ffb456; stroke-width:0px;"/><path d="M43.6157,39.4679h-25.6132l-.0297.0297v1.4748h25.6168c-.0065-.17-.0108-.3405-.0108-.5121,0-.3338.0127-.6647.0369-.9924Z" style="fill:#ffb456; stroke-width:0px;"/><path d="M20.4233,59.9683l.7339,1.3135,24.4999-13.686c-.2692-.4218-.5149-.8599-.736-1.3123l-24.4978,13.6848Z" style="fill:#ffb456; stroke-width:0px;"/><polygon points="31.8556 25.351 31.4723 25.9981 32.0213 25.4492 31.8556 25.351" style="fill:#fff; stroke-width:0px;"/><polygon points="17.9728 39.4679 17.9728 39.4977 18.0025 39.4679 17.9728 39.4679" style="fill:#fff; stroke-width:0px;"/><path d="M96.4246,40.4705v55.9537h-55.9536c18.6511-18.6512,37.3025-37.3025,55.9536-55.9537Z" style="fill:#b3dbe2; stroke-width:0px;"/><path d="M57.03,0L0,57.0296l57.03,57.0296,57.0298-57.0296L57.03,0ZM57.03,1.8168l38.7752,38.7753c-18.4703,18.467-36.9406,36.9341-55.4109,55.4011-12.8591-12.9879-25.7181-25.9757-38.5772-38.9636L57.03,1.8168ZM41.5008,96.7133l55.2128-55.2128,15.5291,15.5291-55.2127,55.2129-15.5292-15.5292Z" style="fill:#619eab; stroke-width:0px;"/><path d="M17.9348,74.79v20.9939s20.9938,0,20.9938,0c-6.9979-6.998-13.9959-13.9959-20.9938-20.9939Z" style="fill:#b9b765; stroke-width:0px;"/><path d="M17.9348,55.8837v16.8155s16.8155,0,16.8155,0c-5.6051-5.6052-11.2103-11.2103-16.8155-16.8155Z" style="fill:#b9b765; stroke-width:0px;"/><path d="M17.9348,41.4129v12.2733s12.2733,0,12.2733,0c-4.0911-4.0911-8.1822-8.1822-12.2733-12.2733Z" style="fill:#b9b765; stroke-width:0px;"/><path d="M97.0652,16.653H16.6538l-.0108,80.0382c8.4238-.0306,16.8477.4042,25.2715.3736h55.1506V16.653ZM17.9348,95.7839v-20.8873l20.8871,20.8873h-20.8871ZM17.9348,55.8837l16.8157,16.8155h-16.8157v-16.8155ZM17.9348,41.4122l12.2733,12.274h-12.2733v-12.274ZM95.7842,95.7839h-55.1507l-21.8039-21.8038h19.0132l-19.0132-19.0129h14.4709l-15.3658-15.3663v-21.667h77.8494v77.8499Z" style="fill:#666638; stroke-width:0px;"/><path d="M75.1261,95.8064h20.68v-20.68l-20.68,20.68Z" style="fill:#90adb3; stroke-width:0px;"/><path d="M97.0652,97.0655h-24.9788l24.9788-24.9788v24.9788ZM75.1261,95.8064h20.68v-20.68l-20.68,20.68Z" style="fill:#496a6e; stroke-width:0px;"/><polygon points="71.7022 97.0655 16.643 97.0655 16.643 95.7871 72.9797 95.7871 71.7022 97.0655" style="fill:#666638; stroke-width:0px;"/><path d="M132.6432,19.7079c4.2383-.0122,7.1582,2.7876,8.0264,6.5034l.0527.2861-2.9385.0083-.0518-.1821c-.6309-2.2603-2.5596-3.9971-5.082-3.9897-3.4063.0093-5.2695,3.0566-5.2607,6.0732.0088,2.9897,1.8633,6.0273,5.2949,6.0176,2.4961-.0073,4.4424-1.7031,5.0596-3.9932l.0508-.1816,2.9385-.0083-.0518.2856c-.8467,3.7207-3.7256,6.563-7.9893,6.5752-5.2002.0146-8.1758-4.189-8.1885-8.6611-.0127-4.4985,2.9395-8.7187,8.1396-8.7334Z" style="fill:#454545; stroke-width:0px;"/><path d="M155.8092,19.6419c5.2261-.0151,8.228,4.1626,8.2407,8.687.0127,4.498-2.9658,8.6924-8.1919,8.7075-5.2002.0146-8.1758-4.189-8.1885-8.6611-.0127-4.4985,2.9395-8.7187,8.1396-8.7334ZM155.816,22.2679c-3.4062.0098-5.2695,3.0312-5.2607,6.0737.0088,3.0156,1.8887,6.0269,5.2949,6.0171,3.4312-.0098,5.3481-2.9795,5.3394-6.0215-.0088-3.0684-1.916-6.0791-5.3735-6.0693Z" style="fill:#454545; stroke-width:0px;"/><path d="M171.7726,19.9344l2.7041-.0078.04,14.2485,9.7764-.0278.0068,2.4702-12.4805.0356-.0469-16.7188Z" style="fill:#454545; stroke-width:0px;"/><path d="M198.2657,19.5213c5.2266-.0146,8.2285,4.1626,8.2412,8.687.0127,4.498-2.9658,8.6929-8.1924,8.7075-5.2002.0146-8.1758-4.189-8.1885-8.6611-.0127-4.4985,2.9395-8.7188,8.1396-8.7334ZM198.2726,22.1473c-3.4063.0098-5.2695,3.0312-5.2607,6.0737.0088,3.0156,1.8887,6.0269,5.2949,6.0171,3.4316-.0098,5.3486-2.9795,5.3398-6.0215-.0088-3.0684-1.916-6.0791-5.374-6.0693Z" style="fill:#454545; stroke-width:0px;"/><path d="M214.2775,36.5326l-.0469-16.7188,11.4668-.0327c3.0156-.0083,4.582,2.2236,4.5898,4.7979.0068,2.3657-1.21,4.5273-4.0176,4.769l-.3379.001,4.1543,7.1387-3.0156.0088-4.1279-7.1123-5.9805.0166.0195,7.124-2.7041.0078ZM216.9542,26.9046l8.7627-.0249c1.3516-.0034,1.8691-.9932,1.8662-2.2671-.0039-1.2222-.5791-2.3647-1.8789-2.3613l-8.7627.0249.0127,4.6284Z" style="fill:#454545; stroke-width:0px;"/><path d="M236.7413,36.4686l7.2324-16.8691,2.6523-.0073,7.5879,16.8271-2.9121.0083-1.9355-4.3369-7.9043.0225-1.8604,4.3477-2.8604.0078ZM242.3907,29.6664l6.085-.0171-3.1406-6.9595-2.9443,6.9766Z" style="fill:#454545; stroke-width:0px;"/><path d="M261.2638,19.6805l7.8779-.0225c5.0449-.0146,8.1758,3.8247,8.1885,8.3232.0127,4.4458-3.0967,8.3809-8.1416,8.3955l-7.8779.0225-.0469-16.7188ZM269.1817,33.9066c3.3809-.0098,5.2969-2.875,5.2881-5.8911-.0088-3.0425-1.9404-5.897-5.3213-5.8872l-5.1738.0146.0332,11.7783,5.1738-.0146Z" style="fill:#454545; stroke-width:0px;"/><path d="M292.4112,19.2538c5.2266-.0146,8.2275,4.1631,8.2402,8.6875.0127,4.498-2.9648,8.6924-8.1914,8.707-5.2002.0151-8.1758-4.1885-8.1885-8.6606-.0127-4.4985,2.9395-8.7187,8.1396-8.7339ZM292.4181,21.8797c-3.4063.0098-5.2695,3.0312-5.2607,6.0737.0088,3.0156,1.8887,6.0269,5.2949,6.0171,3.4326-.0098,5.3486-2.9795,5.3398-6.0215-.0088-3.0684-1.916-6.0791-5.374-6.0693Z" style="fill:#454545; stroke-width:0px;"/><path d="M123.9596,65.7894l7.2324-16.8691,2.6523-.0078,7.5879,16.8271-2.9121.0083-1.9365-4.3369-7.9043.0225-1.8594,4.3477-2.8604.0083ZM129.608,58.9872l6.085-.0171-3.1396-6.9595-2.9453,6.9766Z" style="fill:#447e8a; stroke-width:0px;"/><path d="M148.1695,49.0018l7.8789-.0225c5.0435-.0142,8.1743,3.8252,8.187,8.3237.0127,4.4458-3.0957,8.3809-8.1392,8.395l-7.8789.0225-.0479-16.7188ZM156.0885,63.2279c3.3794-.0098,5.2954-2.875,5.2866-5.8911-.0088-3.0425-1.9404-5.897-5.3198-5.8872l-5.1748.0146.0332,11.7783,5.1748-.0146Z" style="fill:#447e8a; stroke-width:0px;"/><path d="M169.1505,48.8124l2.8604-.0083,5.8096,13.2705,5.8906-13.3037,2.9121-.0083-7.4922,16.8701-2.6523.0073-7.3281-16.8276Z" style="fill:#447e8a; stroke-width:0px;"/><path d="M190.4405,65.6004l7.2324-16.8691,2.6523-.0078,7.5879,16.8276-2.9121.0083-1.9365-4.3369-7.9043.0225-1.8594,4.3477-2.8604.0078ZM196.089,58.7982l6.085-.0171-3.1396-6.9595-2.9453,6.9766Z" style="fill:#447e8a; stroke-width:0px;"/><path d="M214.6505,48.8128l2.5479-.0073,10.5137,12.3989-.0352-12.4287,2.7041-.0073.0479,16.7188-2.5479.0068-10.5146-12.4248.0361,12.4546-2.7041.0078-.0479-16.7188Z" style="fill:#447e8a; stroke-width:0px;"/><path d="M245.9532,48.3861c4.2383-.0122,7.1582,2.7876,8.0264,6.5034l.0537.2861-2.9385.0083-.0527-.1816c-.6299-2.2607-2.5586-3.9976-5.0811-3.9902-3.4063.0098-5.2705,3.0571-5.2617,6.0737.0088,2.9897,1.8643,6.0269,5.2959,6.0171,2.4961-.0068,4.4414-1.7031,5.0586-3.9927l.0518-.1821,2.9385-.0083-.0518.2856c-.8477,3.7207-3.7256,6.563-7.9893,6.5752-5.2002.0146-8.1768-4.1885-8.1895-8.6606-.0127-4.4985,2.9395-8.7192,8.1396-8.7339Z" style="fill:#447e8a; stroke-width:0px;"/><path d="M261.4493,48.68l15.3926-.0439.0068,2.4702-12.6885.0361.0137,4.6284,9.4385-.0269.0068,2.4961-9.4385.0269.0127,4.6538,12.6885-.0361.0078,2.4702-15.3926.0439-.0479-16.7188Z" style="fill:#447e8a; stroke-width:0px;"/><path d="M284.589,48.6141l7.8789-.022c5.0439-.0146,8.1748,3.8247,8.1875,8.3232.0127,4.4458-3.0957,8.3809-8.1396,8.3955l-7.8789.022-.0479-16.7188ZM292.5079,62.8407c3.3799-.0098,5.2959-2.875,5.2871-5.8911-.0088-3.0425-1.9404-5.897-5.3203-5.8872l-5.1748.0146.0332,11.7783,5.1748-.0146Z" style="fill:#447e8a; stroke-width:0px;"/><path d="M125.4498,78.0663l7.8779-.022c5.0449-.0146,8.1768,3.8247,8.1895,8.3232.0127,4.4458-3.0967,8.3809-8.1416,8.3955l-7.8779.022-.0479-16.7188ZM133.3688,92.2928c3.3809-.0098,5.2959-2.875,5.2881-5.8911-.0088-3.0425-1.9404-5.897-5.3213-5.8872l-5.1738.0146.0332,11.7783,5.1738-.0146Z" style="fill:#454545; stroke-width:0px;"/><path d="M149.2399,77.9989l15.3921-.0435.0078,2.4702-12.688.0356.0127,4.6284,9.438-.0269.0068,2.4961-9.438.0269.0137,4.6538,12.688-.0356.0068,2.4702-15.3921.0435-.0479-16.7188Z" style="fill:#454545; stroke-width:0px;"/><path d="M172.6905,77.9325l2.5479-.0073,10.5137,12.3989-.0352-12.4287,2.7041-.0078.0479,16.7188-2.5479.0073-10.5137-12.4248.0352,12.4546-2.7041.0078-.0479-16.7188Z" style="fill:#454545; stroke-width:0px;"/><path d="M202.339,80.3182l-6.5264.0186-.0078-2.4702,15.7305-.0444.0078,2.4702-6.501.0186.04,14.2485-2.7031.0073-.04-14.2485Z" style="fill:#454545; stroke-width:0px;"/><path d="M218.9444,77.8011l2.7041-.0078.0479,16.7188-2.7041.0078-.0479-16.7188Z" style="fill:#454545; stroke-width:0px;"/><path d="M232.1095,89.9061l.0518.1821c.4209,1.7407,3.127,2.2534,4.9209,2.248,2.0283-.0054,4.7041-.6372,4.6982-2.7437-.0029-1.04-.6807-1.6357-1.6699-1.9971-.9883-.3618-2.2109-.4355-3.1465-.4331-3.25.0093-7.2305-.4214-7.2422-4.6079-.0107-3.7959,3.3916-5.1318,6.7979-5.1416,3.0938-.0088,7.1006,1.02,7.5801,4.5806l.0527.2861-2.7041.0078-.0537-.1821c-.3682-1.7148-2.918-2.2275-4.6592-2.2227-1.8984.0054-4.3154.6104-4.3096,2.5601.0029.936.6279,1.5068,1.5127,1.8423.8848.335,2.0039.4102,2.8877.4077,3.3545-.0098,7.6455.4199,7.6572,4.7622.0117,3.978-3.624,5.3403-7.1348,5.3506-3.1201.0088-7.3604-.9927-7.8916-4.6055l-.0518-.2861,2.7041-.0078Z" style="fill:#454545; stroke-width:0px;"/><path d="M257.0421,80.1629l-6.5264.0186-.0078-2.4702,15.7305-.0444.0078,2.4702-6.501.0181.04,14.2485-2.7031.0078-.04-14.2485Z" style="fill:#454545; stroke-width:0px;"/><path d="M273.6954,94.3641l-.0479-16.7188,11.4668-.0322c3.0156-.0088,4.583,2.2231,4.5898,4.7974.0068,2.3657-1.21,4.5273-4.0166,4.7695l-.3379.001,4.1543,7.1387-3.0156.0083-4.1289-7.1123-5.9805.0171.0205,7.124-2.7041.0073ZM276.3722,84.7367l8.7627-.0249c1.3516-.0039,1.8691-.9937,1.8652-2.2676-.0029-1.2222-.5781-2.3647-1.8779-2.3608l-8.7627.0249.0127,4.6284Z" style="fill:#454545; stroke-width:0px;"/><path d="M301.8907,88.954c0-.1299,0-.2861-.001-.3901v-.1299c-.1055-.4678-.4453-1.0386-.8633-1.6357-.418-.6226-.8613-1.1938-1.1484-1.6865l-4.5977-7.5273,3.0674-.0088,4.9121,7.9683,4.7607-7.9956,3.1201-.0093-4.5547,7.5537c-.2578.4429-.7256,1.0679-1.1396,1.6934-.4141.6509-.7754,1.2241-.8789,1.6406,0,.0518.0264.0776.0264.0776l.0166,5.7725-2.7041.0073-.0137-4.6543-.002-.6758Z" style="fill:#454545; stroke-width:0px;"/></g></g></svg>