<?xml version="1.0" encoding="UTF-8"?><svg id="Layer_2" xmlns="http://www.w3.org/2000/svg" viewBox="0 0 114.0598 114.0593"><g id="Components"><g id="ef73608b-9265-4493-b602-0bd81a906943_1"><path d="M56.8596,31.1769c-5.1272,0-9.2838,4.1565-9.2838,9.2834s4.1566,9.2835,9.2838,9.2835,9.2835-4.1562,9.2835-9.2835-4.1566-9.2834-9.2835-9.2834" style="fill:#ffead6; stroke-width:0px;"/><path d="M56.8597,51.2484c-5.9487,0-10.7884-4.8395-10.7884-10.788s4.8396-10.788,10.7884-10.788,10.788,4.8395,10.788,10.788-4.8395,10.788-10.788,10.788ZM56.8597,31.1769c-5.1192,0-9.2839,4.1645-9.2839,9.2835s4.1647,9.2835,9.2839,9.2835,9.2835-4.1645,9.2835-9.2835-4.1645-9.2835-9.2835-9.2835Z" style="fill:#ffb456; stroke-width:0px;"/><path d="M57.6117,27.2017v-10.5486h-1.5045v10.5486c.2491-.0139.4998-.0216.7524-.0216s.5031.0077.7521.0216Z" style="fill:#ffb456; stroke-width:0px;"/><path d="M23.3956,96.1366l1.2984.76,26.1094-44.6141c-.4478-.2298-.8805-.4849-1.297-.7624l-26.1108,44.6165Z" style="fill:#ffb456; stroke-width:0px;"/><path d="M55.8822,53.7047l.4198,28.1571,1.5045-.0238-.4191-28.1088c-.1751.0068-.3509.0114-.5277.0114-.3288,0-.6547-.0124-.9775-.0359Z" style="fill:#ffb456; stroke-width:0px;"/><path d="M71.0436,66.5681l1.2944-.7669-8.3669-14.1237c-.4224.2684-.861.5136-1.314.7338l8.3865,14.1569Z" style="fill:#ffb456; stroke-width:0px;"/><path d="M82.4434,56.0194l.7636-1.2962-14.3903-8.4776c-.2197.4532-.4646.8919-.7326,1.3145l14.3593,8.4593Z" style="fill:#ffb456; stroke-width:0px;"/><path d="M70.1181,41.2165l25.656.346.0202-1.5045-25.6757-.3463c.0138.2478.0214.4973.0214.7486,0,.2538-.0078.5058-.0219.7562Z" style="fill:#ffb456; stroke-width:0px;"/><path d="M83.2265,26.801l-.3611-.6599-.5541-.5541-14.1886,7.8357c.2655.424.5081.8637.7253,1.318l14.3785-7.9396Z" style="fill:#ffb456; stroke-width:0px;"/><path d="M71.3661,17.7553l-1.2771-.7952-7.2474,11.6412c.4495.2272.8841.4794,1.3025.7544l7.222-11.6004Z" style="fill:#ffb456; stroke-width:0px;"/><path d="M43.8775,16.653h-.868l-.6519.3751,7.1273,12.3867c.416-.2783.8484-.5338,1.2958-.7646l-6.9032-11.9973Z" style="fill:#ffb456; stroke-width:0px;"/><path d="M32.0213,25.4492l-.549.549-.3833.6473,13.7571,8.1483c.2153-.4556.4558-.8969.7196-1.3222l-13.5444-8.0223Z" style="fill:#ffb456; stroke-width:0px;"/><path d="M43.6157,39.4679h-25.6132l-.0297.0297v1.4748h25.6168c-.0065-.17-.0108-.3405-.0108-.5121,0-.3338.0127-.6647.0369-.9924Z" style="fill:#ffb456; stroke-width:0px;"/><path d="M20.4233,59.9683l.7339,1.3135,24.4999-13.686c-.2692-.4218-.5149-.8599-.736-1.3123l-24.4978,13.6848Z" style="fill:#ffb456; stroke-width:0px;"/><polygon points="31.8556 25.351 31.4723 25.9981 32.0213 25.4492 31.8556 25.351" style="fill:#fff; stroke-width:0px;"/><polygon points="17.9728 39.4679 17.9728 39.4977 18.0025 39.4679 17.9728 39.4679" style="fill:#fff; stroke-width:0px;"/><path d="M96.4246,40.4705v55.9537h-55.9536c18.6511-18.6512,37.3025-37.3025,55.9536-55.9537Z" style="fill:#b3dbe2; stroke-width:0px;"/><path d="M57.03,0L0,57.0296l57.03,57.0296,57.0298-57.0296L57.03,0ZM57.03,1.8168l38.7752,38.7753c-18.4703,18.467-36.9406,36.9341-55.4109,55.4011-12.8591-12.9879-25.7181-25.9757-38.5772-38.9636L57.03,1.8168ZM41.5008,96.7133l55.2128-55.2128,15.5291,15.5291-55.2127,55.2129-15.5292-15.5292Z" style="fill:#619eab; stroke-width:0px;"/><path d="M17.9348,74.79v20.9939s20.9938,0,20.9938,0c-6.9979-6.998-13.9959-13.9959-20.9938-20.9939Z" style="fill:#b9b765; stroke-width:0px;"/><path d="M17.9348,55.8837v16.8155s16.8155,0,16.8155,0c-5.6051-5.6052-11.2103-11.2103-16.8155-16.8155Z" style="fill:#b9b765; stroke-width:0px;"/><path d="M17.9348,41.4129v12.2733s12.2733,0,12.2733,0c-4.0911-4.0911-8.1822-8.1822-12.2733-12.2733Z" style="fill:#b9b765; stroke-width:0px;"/><path d="M97.0652,16.653H16.6538l-.0108,80.0382c8.4238-.0306,16.8477.4042,25.2715.3736h55.1506V16.653ZM17.9348,95.7839v-20.8873l20.8871,20.8873h-20.8871ZM17.9348,55.8837l16.8157,16.8155h-16.8157v-16.8155ZM17.9348,41.4122l12.2733,12.274h-12.2733v-12.274ZM95.7842,95.7839h-55.1507l-21.8039-21.8038h19.0132l-19.0132-19.0129h14.4709l-15.3658-15.3663v-21.667h77.8494v77.8499Z" style="fill:#666638; stroke-width:0px;"/><path d="M75.1261,95.8064h20.68v-20.68l-20.68,20.68Z" style="fill:#90adb3; stroke-width:0px;"/><path d="M97.0652,97.0655h-24.9788l24.9788-24.9788v24.9788ZM75.1261,95.8064h20.68v-20.68l-20.68,20.68Z" style="fill:#496a6e; stroke-width:0px;"/><polygon points="71.7022 97.0655 16.643 97.0655 16.643 95.7871 72.9797 95.7871 71.7022 97.0655" style="fill:#666638; stroke-width:0px;"/></g></g></svg>