<?xml version="1.0" encoding="UTF-8"?><svg id="Layer_2" xmlns="http://www.w3.org/2000/svg" viewBox="0 0 307.2097 85.1541"><g id="Components"><g id="c791c1c2-362c-4fbe-bac9-7a3d47c35416_7"><path d="M153.5088,17.5799c-2.8911,0-5.2349,2.3438-5.2349,5.2347s2.3438,5.2347,5.2349,5.2347,5.2348-2.3436,5.2348-5.2347-2.3438-5.2347-5.2348-5.2347" style="fill:#ffead6; stroke-width:0px;"/><path d="M153.5089,28.8978c-3.3544,0-6.0833-2.7289-6.0833-6.0831s2.729-6.0831,6.0833-6.0831,6.0831,2.7289,6.0831,6.0831-2.7289,6.0831-6.0831,6.0831ZM153.5089,17.5799c-2.8866,0-5.235,2.3483-5.235,5.2348s2.3484,5.2348,5.235,5.2348,5.2348-2.3483,5.2348-5.2348-2.3483-5.2348-5.2348-5.2348Z" style="fill:#ffb456; stroke-width:0px;"/><path d="M153.933,15.3384v-5.9481h-.8483v5.9481c.1405-.0078.2818-.0122.4243-.0122s.2837.0044.4241.0122Z" style="fill:#ffb456; stroke-width:0px;"/><path d="M134.6393,54.2092l.7322.4285,14.7225-25.1569c-.2525-.1296-.4965-.2734-.7314-.4299l-14.7233,25.1582Z" style="fill:#ffb456; stroke-width:0px;"/><path d="M152.9577,30.2828l.2367,15.8772.8483-.0134-.2363-15.8499c-.0988.0039-.1979.0064-.2976.0064-.1854,0-.3692-.007-.5512-.0203Z" style="fill:#ffb456; stroke-width:0px;"/><path d="M161.5069,37.5362l.7299-.4325-4.7179-7.964c-.2382.1513-.4855.2896-.741.4138l4.729,7.9827Z" style="fill:#ffb456; stroke-width:0px;"/><path d="M167.935,31.588l.4306-.7309-8.1144-4.7803c-.1239.2556-.262.5029-.4131.7412l8.0969,4.77Z" style="fill:#ffb456; stroke-width:0px;"/><path d="M160.985,23.241l14.4668.1951.0114-.8483-14.4779-.1953c.0078.1397.0121.2804.0121.4221,0,.1431-.0044.2852-.0123.4264Z" style="fill:#ffb456; stroke-width:0px;"/><path d="M168.3765,15.1124l-.2036-.3721-.3125-.3125-8.0006,4.4184c.1497.2391.2865.487.409.7432l8.1077-4.477Z" style="fill:#ffb456; stroke-width:0px;"/><path d="M161.6887,10.0118l-.7201-.4484-4.0867,6.5642c.2535.1281.4986.2703.7345.4254l4.0723-6.5412Z" style="fill:#ffb456; stroke-width:0px;"/><path d="M146.1885,9.3903h-.4894l-.3676.2115,4.0189,6.9846c.2346-.1569.4784-.301.7307-.4311l-3.8925-6.765Z" style="fill:#ffb456; stroke-width:0px;"/><path d="M139.5031,14.3502l-.3095.3095-.2162.365,7.7573,4.5946c.1214-.2569.257-.5057.4058-.7456l-7.6374-4.5236Z" style="fill:#ffb456; stroke-width:0px;"/><path d="M146.0409,22.2551h-14.4427l-.0168.0168v.8316h14.4447c-.0036-.0959-.0061-.192-.0061-.2888,0-.1882.0071-.3748.0208-.5596Z" style="fill:#ffb456; stroke-width:0px;"/><path d="M132.9633,33.8147l.4138.7406,13.8149-7.7172c-.1518-.2378-.2903-.4849-.415-.74l-13.8137,7.7165Z" style="fill:#ffb456; stroke-width:0px;"/><polygon points="139.4097 14.2948 139.1936 14.6597 139.5031 14.3502 139.4097 14.2948" style="fill:#fff; stroke-width:0px;"/><polygon points="131.5815 22.2551 131.5815 22.2718 131.5982 22.2551 131.5815 22.2551" style="fill:#fff; stroke-width:0px;"/><path d="M175.8186,22.8204v31.551h-31.5509c10.5169-10.517,21.034-21.034,31.5509-31.551Z" style="fill:#b3dbe2; stroke-width:0px;"/><path d="M153.6049,0l-32.1579,32.1577,32.1579,32.1577,32.1578-32.1577L153.6049,0ZM153.6049,1.0244l21.8645,21.8645c-10.415,10.4131-20.8299,20.8263-31.2449,31.2394-7.2509-7.3236-14.5019-14.6471-21.7528-21.9707L153.6049,1.0244ZM144.8484,54.5344l31.1332-31.1332,8.7565,8.7565-31.1332,31.1332-8.7565-8.7565Z" style="fill:#619eab; stroke-width:0px;"/><path d="M131.56,42.1723v11.8379s11.8379,0,11.8379,0c-3.9459-3.946-7.892-7.892-11.8379-11.8379Z" style="fill:#b9b765; stroke-width:0px;"/><path d="M131.56,31.5115v9.4819s9.4818,0,9.4818,0c-3.1606-3.1606-6.3212-6.3212-9.4818-9.4819Z" style="fill:#b9b765; stroke-width:0px;"/><path d="M131.56,23.3518v6.9207s6.9206,0,6.9206,0c-2.3069-2.3069-4.6138-4.6138-6.9206-6.9207Z" style="fill:#b9b765; stroke-width:0px;"/><path d="M176.1798,9.3903h-45.3421l-.0061,45.1317c4.75-.0173,9.5.2279,14.25.2107h31.0982V9.3903ZM131.56,54.0103v-11.7779l11.7778,11.7779h-11.7778ZM131.56,31.5115l9.482,9.4819h-9.482v-9.4819ZM131.56,23.3514l6.9206,6.921h-6.9206v-6.921ZM175.4575,54.0103h-31.0982l-12.2947-12.2946h10.7211l-10.7211-10.7209h8.1598l-8.6644-8.6647v-12.2175h43.8975v43.8977Z" style="fill:#fff; stroke-width:0px;"/><path d="M163.8089,54.023h11.661v-11.661l-11.661,11.661Z" style="fill:#90adb3; stroke-width:0px;"/><path d="M176.1798,54.733h-14.085l14.085-14.085v14.085ZM163.8089,54.023h11.661v-11.661l-11.661,11.661Z" style="fill:#fff; stroke-width:0px;"/><polygon points="161.8782 54.733 130.8317 54.733 130.8317 54.0121 162.5986 54.0121 161.8782 54.733" style="fill:#fff; stroke-width:0px;"/><path d="M4.4161,75.7174c2.2997-.0068,3.8833,1.5119,4.3546,3.5281l.0296.1548-1.5938.0046-.0296-.0979c-.3415-1.2273-1.3878-2.1699-2.7562-2.1653-1.8477.0046-2.8587,1.6587-2.8541,3.2947.0046,1.6223,1.0098,3.2696,2.8723,3.2651,1.3536-.0046,2.4101-.9244,2.7448-2.1665l.0285-.099,1.5938-.0046-.0285.1548c-.4599,2.0196-2.0208,3.5611-4.3341,3.5679C1.6223,85.162.0069,82.8817,0,80.4545c-.0068-2.4397,1.595-4.7291,4.4161-4.7371Z" style="fill:#fff; stroke-width:0px;"/><path d="M16.9869,75.6821c2.8347-.0091,4.4639,2.2576,4.4707,4.7121.0068,2.4397-1.6086,4.7166-4.4434,4.7234-2.8211.0091-4.4365-2.2724-4.4434-4.6984-.0068-2.4397,1.595-4.7303,4.4161-4.7371ZM16.9914,77.1052c-1.8477.0057-2.8587,1.6451-2.8541,3.2947.0046,1.6371,1.0246,3.2708,2.8723,3.2651,1.8614-.0046,2.9008-1.6166,2.8962-3.2674-.0046-1.6644-1.0383-3.297-2.9144-3.2924Z" style="fill:#fff; stroke-width:0px;"/><path d="M25.6516,75.8404l1.4675-.0046.0216,7.7301,5.3041-.0148.0046,1.34-6.7715.0194-.0262-9.0701Z" style="fill:#fff; stroke-width:0px;"/><path d="M40.0269,75.6161c2.8347-.008,4.4639,2.2587,4.4707,4.7132.0068,2.4397-1.6086,4.7155-4.4434,4.7234-2.8211.008-4.4365-2.2724-4.4434-4.6984-.0068-2.4408,1.595-4.7303,4.4161-4.7382ZM40.0314,77.0403c-1.8477.0057-2.8587,1.6451-2.8541,3.2947.0046,1.636,1.0246,3.2708,2.8723,3.2651,1.8614-.0057,2.9008-1.6166,2.8962-3.2674-.0046-1.6644-1.0383-3.2981-2.9144-3.2924Z" style="fill:#fff; stroke-width:0px;"/><path d="M48.7178,84.8444l-.0262-9.0689,6.2216-.0182c1.636-.0046,2.4852,1.2056,2.4887,2.6025.0046,1.283-.6546,2.4568-2.1779,2.5866l-.1833.0011,2.2541,3.873-1.636.0046-2.2405-3.8582-3.2446.0091.0114,3.8639-1.4675.0046ZM50.1705,79.6212l4.7542-.0137c.7332-.0023,1.0132-.5385,1.0109-1.2295-.0011-.6626-.3142-1.283-1.0189-1.2808l-4.7542.0125.008,2.5114Z" style="fill:#fff; stroke-width:0px;"/><path d="M60.9084,84.8102l3.9242-9.152,1.439-.0034,4.1166,9.1281-1.5802.0046-1.0508-2.352-4.2874.0114-1.0098,2.3589-1.5517.0046ZM63.9731,81.1194l3.3004-.0091-1.7031-3.7751-1.5972,3.7842Z" style="fill:#fff; stroke-width:0px;"/><path d="M74.2146,75.7026l4.2749-.0125c2.7357-.008,4.4343,2.0754,4.4411,4.5151.0068,2.4124-1.6792,4.547-4.4149,4.5549l-4.2749.0114-.0262-9.0689ZM78.5111,83.4202c1.8329-.0057,2.8723-1.5597,2.8678-3.1956-.0046-1.6508-1.0531-3.1991-2.886-3.1945l-2.8074.008.0182,6.3901,2.8074-.008Z" style="fill:#fff; stroke-width:0px;"/><path d="M91.1161,75.4704c2.8347-.0068,4.4639,2.2587,4.4707,4.7132.0068,2.4408-1.6086,4.7155-4.4434,4.7246-2.8211.0068-4.4365-2.2724-4.4434-4.6995-.0068-2.4408,1.595-4.7291,4.4161-4.7382ZM91.1206,76.8957c-1.8477.0046-2.8587,1.6439-2.8541,3.2947.0046,1.636,1.0246,3.2696,2.8723,3.2651,1.8614-.0057,2.9008-1.6166,2.8962-3.2674-.0046-1.6644-1.0383-3.2981-2.9144-3.2924Z" style="fill:#fff; stroke-width:0px;"/><path d="M105.3934,84.6839l3.9242-9.152,1.439-.0046,4.1166,9.1304-1.5802.0034-1.0508-2.352-4.2874.0125-1.0098,2.3577-1.5517.0046ZM108.4581,80.9941l3.3004-.0102-1.7031-3.7751-1.5972,3.7854Z" style="fill:#fff; stroke-width:0px;"/><path d="M118.4321,75.5774l4.2749-.0137c2.7357-.0068,4.4343,2.0754,4.4411,4.5151.0068,2.4135-1.6792,4.5481-4.4149,4.5561l-4.2749.0114-.0262-9.0689ZM122.7286,83.2938c1.8329-.0046,2.8723-1.5597,2.8678-3.1956-.0046-1.6496-1.0531-3.1991-2.886-3.1934l-2.8074.0068.0182,6.3913,2.8074-.0091Z" style="fill:#fff; stroke-width:0px;"/><path d="M129.7199,75.4738l1.5517-.0034,3.1524,7.1984,3.1956-7.2167,1.5802-.0046-4.0643,9.152-1.439.0034-3.9766-9.1293Z" style="fill:#fff; stroke-width:0px;"/><path d="M141.1738,84.5825l3.9242-9.152,1.439-.0046,4.1166,9.1293-1.5802.0046-1.0508-2.352-4.2874.0114-1.0098,2.3589-1.5517.0046ZM144.2385,80.8917l3.3004-.0091-1.7031-3.7751-1.5972,3.7842Z" style="fill:#fff; stroke-width:0px;"/><path d="M154.2125,75.4749l1.3832-.0046,5.7036,6.7271-.0194-6.7431,1.4675-.0034.0262,9.0701-1.3832.0046-5.7036-6.7419.0194,6.7579-1.4675.0034-.0262-9.0701Z" style="fill:#fff; stroke-width:0px;"/><path d="M171.1003,75.2438c2.2997-.0068,3.8833,1.513,4.3546,3.5281l.0296.1548-1.5938.0046-.0296-.0979c-.3415-1.2273-1.3878-2.1699-2.7562-2.1653-1.8477.0046-2.8587,1.6587-2.8541,3.2947.0046,1.6223,1.0098,3.2696,2.8723,3.2651,1.3536-.0046,2.4101-.9244,2.7448-2.1665l.0285-.099,1.5938-.0046-.0285.1548c-.4599,2.0196-2.0208,3.5611-4.3341,3.5679-2.8211.008-4.4365-2.2724-4.4434-4.6995-.0068-2.4397,1.595-4.7291,4.4161-4.7371Z" style="fill:#fff; stroke-width:0px;"/><path d="M179.4122,75.4032l8.3517-.0239.0034,1.3411-6.8842.0182.008,2.5114,5.1208-.0137.0034,1.3536-5.1208.0148.0068,2.5251,6.8842-.0205.0046,1.3411-8.3517.0228-.0262-9.0701Z" style="fill:#fff; stroke-width:0px;"/><path d="M191.8703,75.3679l4.2749-.0114c2.7363-.0091,4.4348,2.0743,4.4417,4.5151.0068,2.4112-1.6804,4.547-4.4155,4.5538l-4.2749.0125-.0262-9.0701ZM196.1668,83.0866c1.8329-.0057,2.8717-1.5597,2.8672-3.1968-.0046-1.6508-1.0525-3.1991-2.8854-3.1945l-2.8074.0091.0182,6.389,2.8074-.0068Z" style="fill:#fff; stroke-width:0px;"/><path d="M210.6211,75.3155l4.2738-.0137c2.7368-.0068,4.4354,2.0754,4.4422,4.5151.0068,2.4135-1.6804,4.5481-4.4149,4.5561l-4.276.0114-.025-9.0689ZM214.9177,83.032c1.8329-.0046,2.8712-1.5597,2.8666-3.1956-.0046-1.6496-1.0519-3.1991-2.8848-3.1934l-2.8074.0068.0182,6.3913,2.8074-.0091Z" style="fill:#fff; stroke-width:0px;"/><path d="M223.0075,75.2791l8.3517-.0228.0046,1.3388-6.8854.0205.0091,2.5114,5.1208-.0159.0023,1.3548-5.1208.0148.0068,2.5251,6.8854-.0194.0046,1.3388-8.3517.025-.0273-9.0712Z" style="fill:#fff; stroke-width:0px;"/><path d="M235.2117,75.2449l1.3844-.0046,5.7036,6.7271-.0205-6.7431,1.4686-.0046.025,9.0712-1.3821.0034-5.7036-6.7408.0182,6.7579-1.4663.0034-.0273-9.0701Z" style="fill:#fff; stroke-width:0px;"/><path d="M250.7789,76.5405l-3.5406.0102-.0046-1.34,8.5338-.0239.0046,1.34-3.5269.0091.0228,7.7301-1.4663.0046-.0228-7.7301Z" style="fill:#fff; stroke-width:0px;"/><path d="M259.2695,75.1766l1.4663-.0046.0273,9.0712-1.4686.0034-.025-9.0701Z" style="fill:#fff; stroke-width:0px;"/><path d="M265.8907,81.7455l.0296.0979c.2277.9449,1.694,1.2227,2.6685,1.2204,1.0997-.0034,2.5524-.3461,2.5479-1.4891,0-.5635-.3689-.8869-.9062-1.0838-.5351-.1958-1.1977-.2368-1.7054-.2345-1.7646.0046-3.9231-.2277-3.9299-2.5-.0068-2.0583,1.8397-2.7835,3.6886-2.7892,1.6781-.0046,3.8525.5533,4.1121,2.4864l.0273.1537-1.4663.0046-.0273-.099c-.2026-.9301-1.5847-1.2079-2.5296-1.2045-1.0292.0023-2.3407.3302-2.3384,1.3878.0023.5077.3415.8185.822.9996.4804.1822,1.0861.222,1.5665.2209,1.8192-.0057,4.1485.2288,4.1554,2.5843.0046,2.1585-1.9672,2.8974-3.873,2.9019-1.6917.0046-3.9914-.5373-4.2806-2.4978l-.0296-.156,1.4686-.0034Z" style="fill:#fff; stroke-width:0px;"/><path d="M278.8964,76.4608l-3.5406.0102-.0023-1.34,8.5338-.025.0023,1.3411-3.5246.0091.0228,7.7301-1.4686.0046-.0228-7.7301Z" style="fill:#fff; stroke-width:0px;"/><path d="M287.4143,84.167l-.0273-9.0701,6.2228-.0182c1.6348-.0046,2.4841,1.2068,2.4887,2.6025.0046,1.2842-.6557,2.4568-2.179,2.5877l-.1822.0011,2.2541,3.873-1.6371.0046-2.2405-3.8594-3.2446.0091.0114,3.865-1.4663.0046ZM288.867,78.9426l4.7542-.0125c.7332-.0023,1.0132-.5385,1.0109-1.2307-.0023-.6626-.3142-1.2819-1.0201-1.2796l-4.7542.0125.0091,2.5103Z" style="fill:#fff; stroke-width:0px;"/><path d="M302.1914,81.2332v-.2823c-.0569-.2539-.2414-.5635-.469-.888-.2254-.337-.4668-.6466-.6216-.9153l-2.4955-4.0825,1.6644-.0046,2.664,4.3227,2.5843-4.3386,1.6917-.0046-2.4704,4.0984c-.1412.2402-.3939.5783-.6193.9176-.2231.3541-.4212.6649-.4759.8903,0,.0296.0137.0433.0137.0433l.0091,3.1307-1.4663.0046-.0068-2.5251-.0023-.3666Z" style="fill:#fff; stroke-width:0px;"/></g></g></svg>