<?xml version="1.0" encoding="UTF-8"?><svg id="Layer_2" xmlns="http://www.w3.org/2000/svg" viewBox="0 0 187.1812 75.5519"><g id="Components"><g id="_53bcf312-5657-44c1-87c2-ff0832760ee8_13"><path d="M8.6836.4541c4.2383-.0122,7.1582,2.7876,8.0264,6.5034l.0527.2861-2.9385.0083-.0518-.1821c-.6309-2.2603-2.5596-3.9971-5.082-3.9897-3.4062.0093-5.2695,3.0566-5.2607,6.0732.0088,2.9897,1.8633,6.0273,5.2949,6.0176,2.4961-.0073,4.4424-1.7031,5.0596-3.9932l.0508-.1816,2.9385-.0083-.0518.2856c-.8467,3.7207-3.7256,6.563-7.9893,6.5752-5.2002.0146-8.1758-4.189-8.1885-8.6611C.5312,4.689,3.4834.4688,8.6836.4541Z" style="fill:#b3dbe2; stroke-width:0px;"/><path d="M31.8496.3882c5.2261-.0151,8.228,4.1626,8.2407,8.687.0127,4.498-2.9658,8.6924-8.1919,8.7075-5.2002.0146-8.1758-4.189-8.1885-8.6611-.0127-4.4985,2.9395-8.7188,8.1396-8.7334ZM31.8564,3.0142c-3.4062.0098-5.2695,3.0313-5.2607,6.0737.0088,3.0156,1.8887,6.0269,5.2949,6.0171,3.4312-.0098,5.3481-2.9795,5.3394-6.0215-.0088-3.0684-1.916-6.0791-5.3735-6.0693Z" style="fill:#b3dbe2; stroke-width:0px;"/><path d="M47.813.6807l2.7041-.0078.04,14.2485,9.7764-.0278.0068,2.4702-12.4805.0356-.0469-16.7188Z" style="fill:#b3dbe2; stroke-width:0px;"/><path d="M74.3062.2676c5.2266-.0146,8.2285,4.1626,8.2412,8.687.0127,4.498-2.9658,8.6929-8.1924,8.7075-5.2002.0146-8.1758-4.189-8.1885-8.6611-.0127-4.4985,2.9395-8.7188,8.1396-8.7334ZM74.313,2.8936c-3.4062.0098-5.2695,3.0312-5.2607,6.0737.0088,3.0156,1.8887,6.0269,5.2949,6.0171,3.4316-.0098,5.3486-2.9795,5.3398-6.0215-.0088-3.0684-1.916-6.0791-5.374-6.0693Z" style="fill:#b3dbe2; stroke-width:0px;"/><path d="M90.3179,17.2788l-.0469-16.7188,11.4668-.0327c3.0156-.0083,4.582,2.2236,4.5898,4.7979.0068,2.3657-1.21,4.5273-4.0176,4.769l-.3379.001,4.1543,7.1387-3.0156.0088-4.1279-7.1123-5.9805.0166.0195,7.124-2.7041.0078ZM92.9946,7.6509l8.7627-.0249c1.3516-.0034,1.8691-.9932,1.8662-2.2671-.0039-1.2222-.5791-2.3647-1.8789-2.3613l-8.7627.0249.0127,4.6284Z" style="fill:#b3dbe2; stroke-width:0px;"/><path d="M112.7817,17.2149L120.0142.3457l2.6523-.0073,7.5879,16.8271-2.9121.0083-1.9355-4.3369-7.9043.0225-1.8604,4.3477-2.8604.0078ZM118.4312,10.4126l6.085-.0171-3.1406-6.9595-2.9443,6.9766Z" style="fill:#b3dbe2; stroke-width:0px;"/><path d="M137.3042.4268l7.8779-.0225c5.0449-.0146,8.1758,3.8247,8.1885,8.3232.0127,4.4458-3.0967,8.3809-8.1416,8.3955l-7.8779.0225-.0469-16.7188ZM145.2222,14.6529c3.3809-.0098,5.2969-2.875,5.2881-5.8911-.0088-3.0425-1.9404-5.897-5.3213-5.8872l-5.1738.0146.0332,11.7783,5.1738-.0146Z" style="fill:#b3dbe2; stroke-width:0px;"/><path d="M168.4517,0c5.2266-.0146,8.2275,4.1631,8.2402,8.6875.0127,4.498-2.9648,8.6924-8.1914,8.707-5.2002.0151-8.1758-4.1885-8.1885-8.6606C160.2993,4.2354,163.2515.0152,168.4517,0ZM168.4585,2.626c-3.4062.0098-5.2695,3.0313-5.2607,6.0737.0088,3.0156,1.8887,6.0269,5.2949,6.0171,3.4326-.0098,5.3486-2.9795,5.3398-6.0215-.0088-3.0684-1.916-6.0791-5.374-6.0693Z" style="fill:#b3dbe2; stroke-width:0px;"/><path d="M0,46.5357l7.2324-16.8691,2.6523-.0078,7.5879,16.8271-2.9121.0083-1.9365-4.3369-7.9043.0225-1.8594,4.3477-2.8604.0083ZM5.6484,39.7334l6.085-.0171-3.1396-6.9595-2.9453,6.9766Z" style="fill:#b3dbe2; stroke-width:0px;"/><path d="M24.21,29.7481l7.8789-.0225c5.0435-.0142,8.1743,3.8252,8.187,8.3237.0127,4.4458-3.0957,8.3809-8.1392,8.395l-7.8789.0225-.0479-16.7188ZM32.1289,43.9742c3.3794-.0098,5.2954-2.875,5.2866-5.8911-.0088-3.0425-1.9404-5.897-5.3198-5.8872l-5.1748.0146.0332,11.7783,5.1748-.0146Z" style="fill:#b3dbe2; stroke-width:0px;"/><path d="M45.1909,29.5586l2.8604-.0083,5.8096,13.2705,5.8906-13.3037,2.9121-.0083-7.4922,16.8701-2.6523.0073-7.3281-16.8276Z" style="fill:#b3dbe2; stroke-width:0px;"/><path d="M66.481,46.3467l7.2324-16.8691,2.6523-.0078,7.5879,16.8276-2.9121.0083-1.9365-4.3369-7.9043.0225-1.8594,4.3477-2.8604.0078ZM72.1294,39.5445l6.085-.0171-3.1396-6.9595-2.9453,6.9766Z" style="fill:#b3dbe2; stroke-width:0px;"/><path d="M90.6909,29.5591l2.5479-.0073,10.5137,12.3989-.0352-12.4287,2.7041-.0073.0479,16.7188-2.5479.0068-10.5146-12.4248.0361,12.4546-2.7041.0078-.0479-16.7188Z" style="fill:#b3dbe2; stroke-width:0px;"/><path d="M121.9937,29.1324c4.2383-.0122,7.1582,2.7876,8.0264,6.5034l.0537.2861-2.9385.0083-.0527-.1816c-.6299-2.2607-2.5586-3.9976-5.0811-3.9902-3.4062.0098-5.2705,3.0571-5.2617,6.0737.0088,2.9897,1.8643,6.0269,5.2959,6.0171,2.4961-.0068,4.4414-1.7031,5.0586-3.9927l.0518-.1821,2.9385-.0083-.0518.2856c-.8477,3.7207-3.7256,6.563-7.9893,6.5752-5.2002.0146-8.1768-4.1885-8.1895-8.6606-.0127-4.4985,2.9395-8.7192,8.1396-8.7339Z" style="fill:#b3dbe2; stroke-width:0px;"/><path d="M137.4897,29.4263l15.3926-.0439.0068,2.4702-12.6885.0361.0137,4.6284,9.4385-.0269.0068,2.4961-9.4385.0269.0127,4.6538,12.6885-.0361.0078,2.4702-15.3926.0439-.0479-16.7188Z" style="fill:#b3dbe2; stroke-width:0px;"/><path d="M160.6294,29.3604l7.8789-.022c5.0439-.0146,8.1748,3.8247,8.1875,8.3232.0127,4.4458-3.0957,8.3809-8.1396,8.3955l-7.8789.022-.0479-16.7188ZM168.5483,43.587c3.3799-.0098,5.2959-2.875,5.2871-5.8911-.0088-3.0425-1.9404-5.897-5.3203-5.8872l-5.1748.0146.0332,11.7783,5.1748-.0146Z" style="fill:#b3dbe2; stroke-width:0px;"/><path d="M1.4902,58.8125l7.8779-.022c5.0449-.0146,8.1768,3.8247,8.1895,8.3232.0127,4.4458-3.0967,8.3809-8.1416,8.3955l-7.8779.022-.0479-16.7188ZM9.4092,73.0391c3.3809-.0098,5.2959-2.875,5.2881-5.8911-.0088-3.0425-1.9404-5.897-5.3213-5.8872l-5.1738.0146.0332,11.7783,5.1738-.0146Z" style="fill:#b3dbe2; stroke-width:0px;"/><path d="M25.2803,58.7452l15.3921-.0435.0078,2.4702-12.688.0356.0127,4.6284,9.438-.0269.0068,2.4961-9.438.0269.0137,4.6538,12.688-.0356.0068,2.4702-15.3921.0435-.0479-16.7188Z" style="fill:#b3dbe2; stroke-width:0px;"/><path d="M48.731,58.6787l2.5479-.0073,10.5137,12.3989-.0352-12.4287,2.7041-.0078.0479,16.7188-2.5479.0073-10.5137-12.4248.0352,12.4546-2.7041.0078-.0479-16.7188Z" style="fill:#b3dbe2; stroke-width:0px;"/><path d="M78.3794,61.0645l-6.5264.0186-.0078-2.4702,15.7305-.0444.0078,2.4702-6.501.0186.04,14.2485-2.7031.0073-.04-14.2485Z" style="fill:#b3dbe2; stroke-width:0px;"/><path d="M94.9849,58.5474l2.7041-.0078.0479,16.7188-2.7041.0078-.0479-16.7188Z" style="fill:#b3dbe2; stroke-width:0px;"/><path d="M108.1499,70.6524l.0518.1821c.4209,1.7407,3.127,2.2534,4.9209,2.248,2.0283-.0054,4.7041-.6372,4.6982-2.7437-.0029-1.04-.6807-1.6357-1.6699-1.9971-.9883-.3618-2.2109-.4355-3.1465-.4331-3.25.0093-7.2305-.4214-7.2422-4.6079-.0107-3.7959,3.3916-5.1318,6.7979-5.1416,3.0937-.0088,7.1006,1.02,7.5801,4.5806l.0527.2861-2.7041.0078-.0537-.1821c-.3682-1.7148-2.918-2.2275-4.6592-2.2227-1.8984.0054-4.3154.6104-4.3096,2.5601.0029.936.6279,1.5068,1.5127,1.8423.8848.335,2.0039.4102,2.8877.4077,3.3545-.0098,7.6455.4199,7.6572,4.7622.0117,3.978-3.624,5.3403-7.1348,5.3506-3.1201.0088-7.3604-.9927-7.8916-4.6055l-.0518-.2861,2.7041-.0078Z" style="fill:#b3dbe2; stroke-width:0px;"/><path d="M133.0825,60.9092l-6.5264.0186-.0078-2.4702,15.7305-.0444.0078,2.4702-6.501.0181.04,14.2485-2.7031.0078-.04-14.2485Z" style="fill:#b3dbe2; stroke-width:0px;"/><path d="M149.7358,75.1104l-.0479-16.7188,11.4668-.0322c3.0156-.0088,4.583,2.2231,4.5898,4.7974.0068,2.3657-1.21,4.5273-4.0166,4.7695l-.3379.001,4.1543,7.1387-3.0156.0083-4.1289-7.1123-5.9805.0171.0205,7.124-2.7041.0073ZM152.4126,65.4829l8.7627-.0249c1.3516-.0039,1.8691-.9937,1.8652-2.2676-.0029-1.2222-.5781-2.3647-1.8779-2.3608l-8.7627.0249.0127,4.6284Z" style="fill:#b3dbe2; stroke-width:0px;"/><path d="M177.9312,69.7002c0-.1299,0-.2861-.001-.3901v-.1299c-.1055-.4678-.4453-1.0386-.8633-1.6357-.418-.6226-.8613-1.1938-1.1484-1.6865l-4.5977-7.5273,3.0674-.0088,4.9121,7.9683,4.7607-7.9956,3.1201-.0093-4.5547,7.5537c-.2578.4429-.7256,1.0679-1.1396,1.6934-.4141.6509-.7754,1.2241-.8789,1.6406,0,.0518.0264.0776.0264.0776l.0166,5.7725-2.7041.0073-.0137-4.6543-.002-.6758Z" style="fill:#b3dbe2; stroke-width:0px;"/></g></g></svg>